<svg id="Capa_1" enable-background="new 0 0 512 512" height="512" viewBox="0 0 512 512" width="512" xmlns="http://www.w3.org/2000/svg"><g><g><g><g><g><path d="m98.553 126.765v106.937l157.528 11.979 157.527-11.979v-106.937z" fill="#fbf2e2"/></g><g><path d="m119.791 210.463v-83.698h-21.238v106.937h315.055v-23.239z" fill="#f7e0ba"/></g><g><path d="m98.553 233.702h315.055v270.362h-315.055z" fill="#9bb6f1"/></g><g><path d="m120.957 482.086v-248.384h-22.404v270.362h315.055v-21.978z" fill="#6990eb"/></g><g><path d="m128.651 263.681h254.86v210.04h-254.86z" fill="#d3e0ef"/></g><g><path d="m150.957 451.908v-188.227h-22.306v210.04h254.86v-21.813z" fill="#9bb6f1"/></g><g><path d="m318.166 105.052c-2.118-10.751-9.396-67.676-9.396-67.676s-11.077.595-26.122 3.841c-14.175-18.173-26.648-29.92-26.648-29.92s-12.423 11.7-26.563 29.81c-14.784-3.15-25.611-3.732-25.611-3.732s-2.826 29.623-9.534 66.198c-3.244 10.105-5.202 20.452-5.202 30.713 0 36.953 29.957 68.911 66.91 68.911s66.91-31.958 66.91-68.911c0-9.76-1.779-19.599-4.744-29.234z" fill="#e08ea2"/></g><g><path d="m322.91 134.287c0-3.854-.287-7.72-.805-11.582-4.787 56.041-99.57 84.263-109.063 16.894-1.303-13.5 2.922-18.199 4.995-36.025 4.261-23.238 6.85-44.597 8.248-56.404l17.95 3.819c5.333-6.83 19.367-22.629 23.637-27.352-7.051-7.799-11.872-12.34-11.872-12.34s-28.84 30.04-28.767 29.354c-13.642-2.75-23.407-3.276-23.407-3.276s-2.826 29.623-9.534 66.198c-2.022 6.298-3.543 12.69-4.403 19.096-8.035 44.93 32.943 88.308 77.983 79.456 31.287-5.604 55.038-34.939 55.038-67.838z" fill="#d15573"/></g><g><g><g><path d="m237.203 80.964-14.845-2.153c.646-4.456 1.3-9.276 1.997-14.736l14.879 1.9c-.708 5.545-1.372 10.448-2.031 14.989z" fill="#fff"/></g><g><path d="m232.404 110.834-14.764-2.654c.764-4.248 1.53-8.77 2.484-14.661l14.807 2.398c-.968 5.98-1.748 10.581-2.527 14.917z" fill="#fff"/></g></g></g><g><path d="m307.587 358.094-10.607-10.607c-5.858-5.858-15.355-5.858-21.213 0-5.858 5.858-5.858 15.355 0 21.213l10.607 10.607 21.213 21.213 21.213-21.213 10.607-10.607c5.858-5.858 5.858-15.355 0-21.213-5.858-5.858-15.355-5.858-21.213 0z" fill="#e08ea2"/></g><g><path d="m291.567 352.901c-2.715-2.715-4.155-6.213-4.353-9.767-4.114-.229-8.304 1.21-11.446 4.353-5.858 5.858-5.858 15.355 0 21.213l10.607 10.607 21.213 21.213 15.8-15.8-21.213-21.213z" fill="#d15573"/></g><g><path d="m151.02 286.437h15v15h-15z" fill="#fff"/></g><g><path d="m181.02 286.437h15v15h-15z" fill="#fff"/></g></g></g></g><g><path d="m346.062 496.976h15.024v15.024h-15.024z"/><path d="m421.269 118.458h-92.04c-3.121-14.969-7.052-30.905-8.81-46.14l-14.856 2.248c1.69 11.518 3.605 24.573 6.731 36.462 26.176 90.23-115.905 117.29-115.905 22.132 0-13.795 5.323-28.447 7.445-42.507 3.331-19.958 6.483-46.032 6.483-46.032 5.052.526 14.924 2.262 22.006 3.881 7.715-10.21 18.515-22.453 23.575-27.553 5.064 5.101 15.935 17.428 23.665 27.674 7.227-1.674 17.23-3.446 22.387-3.987.369 3.754.896 8.746 1.606 14.645l14.916-1.794c-2.307-20.129-1.928-18.394-2.796-28.943-10.626.74-9.89-.067-30.066 3.458-18.583-22.409-21.193-23.715-29.711-32.002-8.487 8.253-11.112 9.584-29.632 31.904-19.781-3.413-18.975-2.626-29.418-3.352.989 1.573-9.292 71.497-14.217 89.906h-91.942v393.542h240.429v-15.024h-225.406v-256.386h30.014v-15.024h-30.014v-92.084h75.658c0 102.496 146.244 96.111 149.035 0h75.839v92.084h-255.493v15.024h255.535v256.386h-30.177v15.024h45.201z"/><path d="m391.124 255.592h-270.398v226.4h270.397v-226.4zm-15.024 211.377h-240.35v-196.353h240.35z"/><path d="m307.567 410.785 37.183-37.182c8.785-8.786 8.785-23.083-.001-31.871-11.778-11.589-27.889-6.661-37.182 5.312-9.29-11.975-25.414-16.898-37.182-5.312-8.786 8.787-8.786 23.084 0 31.872zm-26.557-58.429c2.928-2.929 7.694-2.929 10.622 0l15.935 15.934 15.934-15.934c7.187-6.818 17.445 3.434 10.624 10.623 0 0-26.559 26.559-26.559 26.559l-26.558-26.559c-2.928-2.928-2.928-7.694.002-10.623z"/><path d="m185.199 375.89-24.735 24.736 10.623 10.624 24.736-24.736 24.736 24.736 10.624-10.624-24.736-24.736 24.736-24.735-10.624-10.624-24.736 24.736-24.736-24.736-10.623 10.624z"/></g></g></svg>